# xmcd
# 
# Track frame offsets:
#     150
#     14766
#     28817
#     46011
#     67389
#     108640
#     123166
#     130618
#     150629
#     164624
#     185096
#     201465
#     221405
#     246703
#     267655
#     279920
#     302951
#     320056
# 
# Disc length: 4440
# 
# Revision: 5
# Processed by: cddbd v1.5.2PL0 Copyright (c) Steve Scherf et al.
# Submitted via: fre:ac v1.0.31
# 
DISCID=23115612
DTITLE=John Denver - The Collection
DYEAR=1997
DGENRE=Folk
TTITLE0=Take Me Home, Country Roads
TTITLE1=Annie's Song
TTITLE2=Calypso
TTITLE3=The Gift You Are
TTITLE4=The Foxfire Suite
TTITLE5=Homegrown Tomatoes
TTITLE6=Deal with the Ladies
TTITLE7=Ponies
TTITLE8=Ancient Rhymes
TTITLE9=All This Joy
TTITLE10=Falling Leaves (the Refugees)
TTITLE11=Chained to the Wheel
TTITLE12=Amazon (Let This Be a Voice)
TTITLE13=Sing Australia
TTITLE14=Alaska and Me
TTITLE15=Sunshine on my Shoulders
TTITLE16=A Country Girl in Paris
TTITLE17=Rocky Mountain High
EXTD=Song titles corrected and completed.
EXTT0=
EXTT1=
EXTT2=
EXTT3=
EXTT4=
EXTT5=
EXTT6=
EXTT7=
EXTT8=
EXTT9=
EXTT10=
EXTT11=
EXTT12=
EXTT13=
EXTT14=
EXTT15=
EXTT16=
EXTT17=
PLAYORDER=
